<?xml version="1.0" encoding="UTF-8" standalone="no"?>
<svg
   xmlns:osb="http://www.openswatchbook.org/uri/2009/osb"
   xmlns:dc="http://purl.org/dc/elements/1.1/"
   xmlns:cc="http://creativecommons.org/ns#"
   xmlns:rdf="http://www.w3.org/1999/02/22-rdf-syntax-ns#"
   xmlns:svg="http://www.w3.org/2000/svg"
   xmlns="http://www.w3.org/2000/svg"
   xmlns:xlink="http://www.w3.org/1999/xlink"
   xmlns:sodipodi="http://sodipodi.sourceforge.net/DTD/sodipodi-0.dtd"
   xmlns:inkscape="http://www.inkscape.org/namespaces/inkscape"
   width="550"
   height="200"
   id="svg3336"
   version="1.1"
   inkscape:version="0.91 r13725"
   sodipodi:docname="logo.svg">
  <metadata
     id="metadata3346">
    <rdf:RDF>
      <cc:Work
         rdf:about="">
        <dc:format>image/svg+xml</dc:format>
        <dc:type
           rdf:resource="http://purl.org/dc/dcmitype/StillImage" />
        <dc:title></dc:title>
      </cc:Work>
    </rdf:RDF>
  </metadata>
  <defs
     id="defs3344">
    <inkscape:perspective
       sodipodi:type="inkscape:persp3d"
       inkscape:vp_x="0 : 100 : 1"
       inkscape:vp_y="0 : 1000 : 0"
       inkscape:vp_z="500 : 100 : 1"
       inkscape:persp3d-origin="250 : 66.666667 : 1"
       id="perspective4163" />
    <linearGradient
       inkscape:collect="always"
       id="linearGradient4147">
      <stop
         style="stop-color:#d32f2f;stop-opacity:1;"
         offset="0"
         id="stop4149" />
      <stop
         style="stop-color:#d32f2f;stop-opacity:0;"
         offset="1"
         id="stop4151" />
    </linearGradient>
    <linearGradient
       id="linearGradient5600"
       osb:paint="solid">
      <stop
         style="stop-color:#d32f2f;stop-opacity:1;"
         offset="0"
         id="stop5602" />
    </linearGradient>
    <linearGradient
       inkscape:collect="always"
       xlink:href="#linearGradient4147"
       id="linearGradient4153"
       x1="323.09061"
       y1="98.631927"
       x2="324.21011"
       y2="46.065563"
       gradientUnits="userSpaceOnUse"
       gradientTransform="translate(42,2.1455658)" />
    <linearGradient
       inkscape:collect="always"
       xlink:href="#linearGradient4147"
       id="linearGradient4383"
       x1="149.48383"
       y1="116.80932"
       x2="148.98245"
       y2="-9.8386641"
       gradientUnits="userSpaceOnUse" />
  </defs>
  <sodipodi:namedview
     pagecolor="#ffffff"
     bordercolor="#666666"
     borderopacity="1"
     objecttolerance="10"
     gridtolerance="10"
     guidetolerance="10"
     inkscape:pageopacity="0"
     inkscape:pageshadow="2"
     inkscape:window-width="1920"
     inkscape:window-height="1178"
     id="namedview3342"
     showgrid="false"
     inkscape:zoom="0.93215505"
     inkscape:cx="275.54393"
     inkscape:cy="97.086852"
     inkscape:window-x="-8"
     inkscape:window-y="-8"
     inkscape:window-maximized="1"
     inkscape:current-layer="svg3336" />
  <g
     id="layer1"
     transform="matrix(0.72,0,0,0.72,-22.043941,13.024566)"
     style="opacity:1;fill:url(#linearGradient4383);fill-opacity:1;stroke:none">
    <g
       id="g22249"
       style="fill:url(#linearGradient4383);fill-opacity:1.0;stroke:none"
       transform="translate(29.054537,4.4699287)">
      <path
         id="path17799"
         d="m 80.180727,215.68861 c 8.1e-4,-0.34608 17.4441,-9.0462 20.568303,-10.2588 4.3119,-1.67358 11.4189,-2.87775 13.938,-2.3616 l 1.8309,0.37515 -2.04465,2.44731 c -1.12455,1.34601 -2.99298,3.1074 -4.152,3.9144 -2.79687,1.94712 -9.6399,4.2756 -14.878503,5.0628 -3.6903,0.55449 -15.2628,1.17693 -15.2619,0.82092 z m 69.453003,-0.19092 c -7.8324,-0.47301 -8.4282,-0.58221 -15.7302,-2.88231 -4.3686,-1.3761 -5.4858,-2.0412 -8.8581,-5.2734 l -3.8592,-3.6984 1.70403,-0.47724 c 4.3839,-1.22784 18.4527,2.82231 24.6144,7.086 1.17087,0.81021 2.79954,1.67367 3.6192,1.91874 1.86834,0.55857 7.1541,3.2604 7.1541,3.657 0,0.16231 -0.33534,0.25155 -0.7452,0.19832 -0.40986,-0.0532 -3.9645,-0.29117 -7.8993,-0.52878 z m -85.254003,-10.4793 c -3.279,-1.0191 -7.1283,-2.18685 -8.5542,-2.59497 l -2.59251,-0.74208 4.3812,-0.7584 c 2.40957,-0.41712 6.9813,-1.29057 10.1592,-1.94094 8.8623,-1.81368 17.739,-1.28685 23.481,1.39359 l 1.53507,0.71658 -1.91679,1.71459 c -5.0208,4.491 -16.1652,5.4216 -26.493,2.21166 z m 88.572003,0.70602 c -4.2645,-1.57128 -8.1603,-4.3059 -7.0452,-4.9452 2.32992,-1.33587 10.1037,-2.97981 14.091,-2.97981 3.6759,0 13.3575,1.51731 22.5936,3.5409 1.74114,0.38148 1.00575,0.71775 -6.6153,3.0252 -7.479,2.26428 -9.2904,2.59305 -14.1804,2.57385 -4.0143,-0.0158 -6.5256,-0.36075 -8.8437,-1.21488 z m -49.311,-4.9266 c -3.763503,-1.11726 -11.594403,-10.1985 -13.022103,-15.1014 l -0.41178,-1.41414 2.57484,1.34577 c 1.41615,0.74019 4.4295,1.99209 6.6963,2.78199 7.539303,2.62713 11.006703,5.4675 13.179903,10.7964 l 0.9207,2.25759 -4.0323,-0.0551 c -2.21769,-0.0303 -4.8753,-0.30537 -5.9058,-0.61125 z m 21.2493,-0.42192 c 0,-1.66473 4.2504,-7.0938 7.0284,-8.9772 1.22595,-0.83118 3.9477,-2.08932 6.0483,-2.79582 2.10063,-0.7065 5.1411,-1.93785 6.7566,-2.73636 l 2.93736,-1.45179 -0.37971,1.55001 c -0.91749,3.7452 -6.7299,11.3286 -10.3476,13.5006 -2.07756,1.2474 -3.6957,1.66047 -7.3536,1.87743 -4.4109,0.26161 -4.6899,0.20408 -4.6899,-0.96708 z m -37.560003,-2.9997 c -6.4431,-2.35449 -11.0022,-7.6854 -13.437,-15.7119 -0.82374,-2.71539 -1.66377,-6.1227 -1.86672,-7.5717 l -0.369,-2.63448 8.0295,8.1315 c 8.2857,8.391 9.9756,10.902 10.491,15.5892 0.29982,2.72526 -0.24732,3.1473 -2.84766,2.19717 z m 60.375003,-2.00955 c 0.70461,-5.382 3.7623,-9.5049 15.102,-20.3619 l 3.6381,-3.4833 -0.48408,3.1374 c -1.55106,10.0524 -6.6741,18.8064 -12.6837,21.6732 -1.67811,0.80052 -3.69,1.45821 -4.4709,1.46148 -1.31202,0.006 -1.39569,-0.17882 -1.10139,-2.42682 z m -93.462003,-3.6024 c -6.8628,-2.18184 -8.64,-3.0864 -15.2103,-7.7406 -3.6378,-2.57706 -6.5328,-4.7454 -6.4332,-4.8189 0.90078,-0.66189 22.3986,1.73859 24.2817,2.71134 0.51636,0.26673 2.68266,1.35519 4.8138,2.41881 2.13132,1.06362 4.9221,2.87562 6.2016,4.0266 l 2.32635,2.09283 -2.13987,0.91599 c -3.5562,1.52235 -9.7368,1.69818 -13.8402,0.39369 z m 118.425003,0.49179 c -1.42851,-0.28773 -2.97789,-0.84672 -3.4431,-1.24224 -1.09743,-0.93312 -0.0541,-2.1699 4.3659,-5.1756 4.8906,-3.3258 10.4127,-5.0376 18.4848,-5.7294 10.3926,-0.89094 13.2168,-0.99219 12.8961,-0.46224 -0.68448,1.13124 -12.963,9.1107 -15.8289,10.2867 -6.6837,2.74269 -11.2173,3.3819 -16.4751,2.32299 z m -107.241003,-8.0787 c -3.744,-2.89452 -7.1103,-7.8249 -7.9044,-11.5773 -0.37962,-1.79385 -0.59466,-6.6948 -0.48894,-11.1426 l 0.18873,-7.9404 2.17866,4.2756 c 1.19826,2.35155 2.88099,5.3274 3.7395,6.6132 4.1694,6.2451 6.4959,14.7087 5.3526,19.4745 l -0.5397,2.2503 -2.52645,-1.95315 z m 104.316003,-4.1778 c 0.31551,-6.5871 1.33029,-9.8382 4.4856,-14.3703 0.74124,-1.06467 2.52507,-4.1934 3.9642,-6.9525 l 2.61633,-5.0166 0.41748,5.1345 c 0.50202,6.1746 -0.33732,14.0952 -1.84116,17.3739 -1.17456,2.56092 -6.2364,8.1237 -8.5434,9.3885 l -1.40214,0.76881 0.30303,-6.3264 z m -126.906003,-7.5297 c -2.01048,-0.45558 -4.5573,-1.30614 -5.6595,-1.89012 -3.5973,-1.90587 -9.729,-7.3455 -12.422998,-11.0211 -1.45068,-1.97919 -3.4431,-4.4919 -4.4277,-5.5836 -2.01936,-2.2392 -1.90032,-2.34339 1.26348,-1.10592 1.23624,0.48354 3.755398,1.18272 5.597998,1.55379 3.8487,0.77493 10.515,3.8964 14.2659,6.6804 2.85048,2.11551 7.2882,7.1919 8.6559,9.9012 0.81339,1.61148 0.79938,1.75314 -0.17407,1.76079 -0.58224,0.005 -1.59516,0.1264 -2.25096,0.27067 -0.6558,0.14427 -2.83728,-0.11043 -4.8477,-0.56601 z m 146.289003,0.46551 c -0.90171,-0.14282 -1.63947,-0.39858 -1.63947,-0.56841 0,-1.21356 3.6462,-6.2151 6.4869,-8.8983 3.9222,-3.7047 11.97,-8.0523 16.7934,-9.072 1.78728,-0.37788 4.4256,-1.08312 5.8629,-1.56723 3.0966,-1.04304 3.7662,-0.73722 1.5876,0.72522 -0.86148,0.57828 -2.48958,2.45553 -3.618,4.1718 -3.4872,5.3034 -5.3922,7.122 -12.7173,12.1413 -2.76114,1.89195 -9.6774,3.5553 -12.7554,3.0678 z m -141.300003,-8.1144 c -1.54587,-1.85028 -2.28528,-3.5691 -3.0309,-7.0458 -0.54246,-2.52915 -0.98625,-5.6598 -0.98625,-6.957 0,-3.3966 2.17629,-13.7385 3.5214,-16.7343 1.13196,-2.52093 1.14822,-2.53074 1.2003,-0.72321 0.029,1.00782 0.98715,5.6802 2.12916,10.3836 1.30086,5.3571 2.07924,10.0497 2.08407,12.5631 0.008,3.969 -1.31661,9.9756 -2.3424,10.6251 -0.29184,0.18479 -1.45071,-0.76533 -2.57529,-2.11137 z m 139.143003,0.73104 c -2.41458,-6.2505 -2.32254,-10.3368 0.49131,-21.8079 0.98886,-4.0311 1.80138,-8.0691 1.80558,-8.973 0.0249,-5.3406 2.64081,0.69267 4.1904,9.6645 1.4895,8.6235 -0.44091,18.6714 -4.1229,21.4605 l -1.72626,1.30758 -0.6381,-1.65174 z M 31.968027,148.29478 c -4.2738,-1.55496 -8.554198,-4.9995 -11.106598,-8.9382 -1.15134,-1.77657 -3.6924,-6.5376 -5.6469,-10.5801 l -3.5535,-7.35 2.80881,1.65453 c 1.54485,0.90999 4.377,2.77065 6.2934,4.1349 1.91649,1.36413 4.425298,3.0654 5.575198,3.7806 4.3164,2.68437 9.2133,10.5108 10.0896,16.1259 0.44265,2.83596 0.25041,2.88648 -4.4601,1.1727 z m 169.230003,0.31605 c 0,-0.51474 0.84234,-3.1737 1.87185,-5.9088 2.10702,-5.5977 4.8954,-9.1242 9.9816,-12.6234 4.6503,-3.1995 12.2346,-8.0133 12.6288,-8.0154 0.62919,-0.004 -7.1838,15.5553 -9.2517,18.4242 -2.41995,3.357 -6.4206,6.3249 -10.6725,7.917 -3.7035,1.38687 -4.5582,1.4256 -4.5582,0.20662 z m -165.081003,-7.9026 c -1.6044,-4.3932 -1.62402,-9.9489 -0.0535,-15.1584 1.27719,-4.2366 8.9316,-16.9509 8.9031,-14.7885 -0.094,7.1091 -1.28532,21.3648 -1.97118,23.5878 -1.17027,3.7935 -2.97291,7.3221 -4.4304,8.6724 -1.179,1.09236 -1.21773,1.05582 -2.44812,-2.31336 z m 163.134003,2.27232 c -1.43967,-1.63782 -3.7782,-6.8397 -4.5534,-10.1289 -0.60924,-2.58489 -1.9764,-22.4292 -1.57536,-22.8666 0.44607,-0.48648 7.6338,11.7018 8.7429,14.8254 1.83648,5.172 1.81872,12.3546 -0.0404,16.3377 -0.74481,1.5957 -1.41723,2.90127 -1.49427,2.90127 -0.077,0 -0.56283,-0.48099 -1.07958,-1.0689 z m -174.039003,-21.9 c -5.451298,-3.678 -8.529298,-9.8931 -10.283098,-20.7645 -0.49326,-3.057293 -1.08909,-6.080693 -1.32408,-6.718793 -0.32781,-0.88992 0.0734,-0.73341 1.72386,0.67248 1.18311,1.00779 2.80683,2.29749 3.6084,2.86596 2.50908,1.779747 8.903698,11.530793 10.072198,15.359393 1.32105,4.3275 1.48722,10.7871 0.2775,10.7871 -0.44616,0 -2.27976,-0.99081 -4.0746,-2.20185 z m 182.745003,-2.34429 c 0.4416,-5.3526 1.81845,-9.378 4.6221,-13.5132 2.09703,-3.0933 11.0856,-12.479993 11.9505,-12.479993 0.26781,0 0.22233,0.71298 -0.10104,1.58436 -0.3234,0.87141 -0.96477,3.963597 -1.4253,6.871493 -1.6191,10.2231 -5.0289,16.7796 -10.4505,20.0949 -4.8285,2.95254 -5.0406,2.83452 -4.5957,-2.5572 z M 31.572027,115.7395 c -0.27079,-2.22045 -0.0886,-4.5201 0.56853,-7.1769 1.6467,-6.6573 3.4737,-9.685796 9.2745,-15.373493 2.9556,-2.89797 5.3739,-5.1288 5.3739,-4.9575 0,0.17135 -0.42897,1.73745 -0.95331,3.4803 -2.9022,9.646793 -4.7166,14.936693 -5.7882,16.874693 -1.64628,2.97744 -7.1037,10.4202 -7.6404,10.4202 -0.24002,0 -0.61572,-1.47033 -0.83487,-3.2673 z m 171.558003,0.31617 c -4.8357,-5.8755 -7.4376,-11.8521 -11.745,-26.977493 l -0.43485,-1.52697 1.47966,1.52697 c 0.81384,0.83985 3.4977,3.5376 5.964,5.9952 3.8211,3.806997 4.7232,5.117393 6.0975,8.856593 1.71501,4.6659 2.52615,11.4045 1.65378,13.7388 -0.50961,1.36374 -0.60897,1.31058 -3.015,-1.61286 z M 27.363027,95.863277 c -4.758298,-2.97279 -6.658798,-9.5592 -5.909698,-20.4831 0.25505,-3.72 0.47034,-7.635 0.47844,-8.7003 0.0143,-1.88274 0.0713,-1.84026 2.04885,1.52697 1.118788,1.905 2.405608,3.8853 2.859628,4.4004 1.22607,1.39164 3.5799,7.1604 4.4391,10.8795 0.75516,3.2688 0.56841,6.7023 -0.60795,11.178 -0.71088,2.70477 -0.82884,2.74752 -3.3084,1.1985 z m 180.270003,-0.2193 c -0.48387,-0.87285 -0.76344,-3.7143 -0.7662,-7.7877 -0.004,-6.0084 0.11737,-6.6639 1.92417,-10.3836 1.06074,-2.18358 3.1005,-5.8224 4.5327,-8.0862 l 2.60424,-4.116 0.51114,5.9484 c 0.89871,10.4586 0.25653,16.2876 -2.32407,21.0957 -1.05804,1.97127 -4.1742,4.7034 -5.3646,4.7034 -0.19569,0 -0.69861,-0.61842 -1.11762,-1.37427 z m -174.555003,-3.8523 c 0,-5.1642 2.96121,-10.8249 8.0754,-15.4368 2.15316,-1.94178 12.6057,-8.0436 13.779,-8.0436 0.17592,0 -0.52608,1.03071 -1.56006,2.29047 -1.03398,1.25976 -3.4926,4.7643 -5.4636,7.7877 -3.948,6.0555 -7.8465,10.4646 -11.6589,13.1856 -3.0366,2.16735 -3.1716,2.17656 -3.1716,0.21678 z m 169.005003,-0.0454 c -3.5343,-2.39283 -8.5749,-7.5558 -9.8607,-10.1004 -1.75806,-3.4788 -4.7676,-7.932 -6.936,-10.263 -1.08465,-1.16598 -1.97208,-2.35215 -1.97208,-2.63595 0,-0.28379 2.70051,0.93087 6.0012,2.69928 4.7049,2.52078 6.8253,4.1106 9.8175,7.3599 3.8037,4.131 4.6563,5.9316 5.9478,12.5622 0.46821,2.4036 0.0689,2.45394 -2.99766,0.37773 z M 33.861027,71.248177 c -3.8607,-6.7035 -3.7113,-11.0604 0.85299,-24.8742 l 1.69842,-5.1405 2.0154,6.2637 c 1.58805,4.9356 2.01393,7.2561 2.00841,10.9428 -0.008,5.1342 -1.62057,10.4811 -4.0257,13.3458 l -1.32855,1.58241 -1.22103,-2.12025 z m 168.129003,1.2486 c -0.35712,-0.45441 -1.41885,-2.3379 -2.35947,-4.1856 -1.59039,-3.1242 -1.70748,-3.8298 -1.67196,-10.0782 0.0341,-5.9964 0.23643,-7.2441 1.88184,-11.6049 1.11378,-2.95182 1.98126,-4.5237 2.19123,-3.9702 2.61189,6.8853 5.1063,16.1742 5.1192,19.0644 0.0116,2.58081 -1.93368,8.3391 -3.4767,10.2912 -0.84708,1.07172 -1.15269,1.15941 -1.68414,0.48312 z m -162.009003,-3.7275 c 2.0532,-6.6336 10.5375,-12.9735 20.6214,-15.4089 5.9271,-1.43157 6.3447,-1.20966 2.82357,1.5009 -1.73661,1.33686 -4.1109,3.3447 -5.2764,4.4619 -4.9911,4.7844 -14.7303,10.7991 -17.5104,10.8144 -0.8529,0.005 -0.99297,-0.28648 -0.65814,-1.3683 z m 155.613003,0.93531 c -2.12202,-0.55617 -8.3943,-4.4079 -11.6835,-7.1745 -1.80342,-1.51698 -5.2089,-4.3338 -7.5678,-6.2592 -2.3589,-1.92567 -4.1976,-3.5946 -4.086,-3.7089 0.56262,-0.57642 8.0805,1.39887 12.4401,3.2685 5.5902,2.39754 10.1739,6.3195 12.2442,10.4766 1.89111,3.7977 1.73013,4.2039 -1.3467,3.3975 z M 45.120027,49.834687 c -0.90204,-4.2588 -0.37269,-9.3831 1.33113,-12.8856 0.84225,-1.7313 3.2532,-5.2869 5.358,-7.9011 l 3.8265,-4.7535 0.4167,3.9867 c 0.91401,8.7441 -1.17861,16.0155 -6.027,20.9427 -1.73547,1.76367 -3.4254,3.2067 -3.7554,3.2067 -0.33,0 -0.84744,-1.16814 -1.14984,-2.59587 z m 143.406003,-0.0985 c -1.67259,-1.5804 -3.5046,-4.1484 -4.4619,-6.2541 -1.4532,-3.1968 -1.6464,-4.4082 -1.83612,-11.5131 l -0.21201,-7.9404 2.28912,2.69295 c 6.6357,7.8063 8.4402,11.1756 8.9358,16.6848 0.32988,3.666 -0.53484,9.0318 -1.45329,9.0174 -0.23328,-0.004 -1.70109,-1.21311 -3.2619,-2.68782 z M 54.033027,47.502897 c 5.0937,-4.9377 10.194,-6.6846 19.4679,-6.6681 6.555,0.0118 7.7181,0.64701 3.8787,2.11821 -1.57557,0.60372 -5.0109,2.18556 -7.6341,3.5151 -5.226,2.649 -10.7715,4.1028 -15.7125,4.1193 l -3.1929,0.0106 3.1929,-3.0954 z m 123.024003,2.2272 c -1.96737,-0.4116 -6.1257,-1.99428 -9.2406,-3.5172 -3.1149,-1.52277 -6.6669,-3.1374 -7.8933,-3.5877 -3.2121,-1.18008 -1.707,-1.77936 4.4967,-1.7904 9.531,-0.017 15.5739,2.20257 20.6535,7.5858 l 2.05452,2.1774 -3.2469,-0.0598 c -1.78578,-0.0329 -4.8564,-0.3966 -6.8238,-0.80823 z M 70.485027,37.185597 c -1.23324,-0.24502 -2.41164,-0.61905 -2.6187,-0.83118 -0.67617,-0.69273 0.96321,-2.08659 4.1346,-3.5154 4.7613,-2.14512 12.1701,-2.01066 19.0587,0.3459 2.86908,0.98151 5.2164,2.00271 5.2164,2.26938 0,0.26666 -1.00605,0.48714 -2.23566,0.48993 -1.22961,0.003 -5.1867,0.40971 -8.7936,0.90426 -6.9987,0.95964 -11.151,1.05444 -14.7618,0.33705 z m 84.513003,-0.0124 c -1.96737,-0.27411 -5.8035,-0.70545 -8.5245,-0.95856 -2.72112,-0.2531 -4.7331,-0.675 -4.4712,-0.9375 1.00683,-1.00923 9.6273,-3.57 13.3242,-3.9582 4.4748,-0.46971 10.3581,0.798 13.1475,2.83302 1.98717,1.44969 2.15292,2.09937 0.68322,2.67798 -1.7043,0.67098 -10.3092,0.87951 -14.1591,0.34311 z m -92.964003,-2.21448 c -1.30527,-5.328 2.60361,-11.9358 10.1532,-17.1627 1.9368,-1.34097 4.0968,-2.74896 4.8,-3.1287 l 1.27872,-0.69069 -1.06311,4.2342 c -1.49592,5.9583 -3.1764,9.2013 -6.6318,12.7974 -2.44623,2.54607 -6.7113,5.5416 -7.89,5.5416 -0.14147,0 -0.43263,-0.7161 -0.64704,-1.59129 z m 110.493003,0.37284 c -2.80176,-1.51506 -8.1849,-7.5699 -9.5655,-10.7592 -1.14051,-2.63469 -3.1299,-9.9795 -2.79198,-10.3086 0.10821,-0.10542 2.14182,1.09851 4.5192,2.6754 4.8099,3.1905 9.9936,9.0048 10.9473,12.279 0.7254,2.49048 0.50091,6.8541 -0.3654,7.1031 -0.3279,0.0942 -1.56255,-0.35124 -2.74368,-0.98994 z m -91.428003,-11.1501 c 1.24341,-5.9154 4.3209,-8.349 13.6875,-10.8234 2.29527,-0.60636 4.6698,-1.31085 5.276703,-1.56552 2.09319,-0.87831 -0.621363,3.2502 -5.265603,8.0082 -4.4613,4.5708 -7.9548,6.3657 -12.3885,6.3657 -1.63731,0 -1.70586,-0.10381 -1.31043,-1.98507 z m 69.471003,0.97923 c -1.4532,-0.52113 -3.7029,-1.81359 -4.9992,-2.87211 -2.21121,-1.80546 -8.9091,-10.2144 -8.4834,-10.6503 0.1071,-0.10972 1.49862,0.2143 3.0924,0.72003 1.59366,0.50574 4.6038,1.41453 6.6888,2.01951 5.8062,1.68459 10.2186,6.2391 10.2186,10.5477 0,0.99912 -0.37791,1.23552 -1.93755,1.21206 -1.06566,-0.016 -3.1266,-0.45555 -4.5798,-0.97671 z"
         inkscape:connector-curvature="0"
         style="fill:url(#linearGradient4383);fill-opacity:1.0;stroke-width:0.30449998;stroke:none" />
    </g>
  </g>
  <text
     xml:space="preserve"
     style="font-style:normal;font-weight:normal;font-size:40px;line-height:125%;font-family:sans-serif;letter-spacing:0px;word-spacing:0px;opacity:1;fill:url(#linearGradient4153);fill-opacity:1;stroke:none;stroke-width:1px;stroke-linecap:butt;stroke-linejoin:miter;stroke-opacity:1"
     x="207.20856"
     y="118.46849"
     id="text3348"
     sodipodi:linespacing="125%"><tspan
       sodipodi:role="line"
       x="207.20856"
       y="118.46849"
       id="tspan3352"
       style="font-style:italic;font-variant:normal;font-weight:normal;font-stretch:normal;font-size:80px;line-height:125%;font-family:'Monotype Corsiva';-inkscape-font-specification:'Monotype Corsiva, Italic';text-align:start;writing-mode:lr-tb;text-anchor:start;fill:url(#linearGradient4153);fill-opacity:1">Die Legion</tspan></text>
</svg>
